<mxfile modified="2024-07-08T12:38:50.385Z" host="app.diagrams.net" agent="Mozilla/5.0 (X11; Linux x86_64) AppleWebKit/537.36 (KHTML, like Gecko) Chrome/126.0.0.0 Safari/537.36" etag="yUerxju9OpNKCVndsXv4" version="24.6.4" type="github">
  <diagram id="Ht1M8jgEwFfnCIfOTk4-" name="Page-1">
    <mxGraphModel dx="1434" dy="2453" grid="1" gridSize="10" guides="1" tooltips="1" connect="1" arrows="1" fold="1" page="1" pageScale="1" pageWidth="1169" pageHeight="827" math="0" shadow="0">
      <root>
        <mxCell id="0" />
        <mxCell id="1" parent="0" />
        <mxCell id="aVOqjhGYucEx2oazw3-k-55" value="Local Network" style="rounded=1;whiteSpace=wrap;html=1;fillColor=none;labelPosition=center;verticalLabelPosition=bottom;align=center;verticalAlign=top;" vertex="1" parent="1">
          <mxGeometry x="320" y="-1457.05" width="750" height="567.05" as="geometry" />
        </mxCell>
        <mxCell id="gNOePfXuiMs6rmTH2Cl8-12" value="MiniKube" style="rounded=1;whiteSpace=wrap;html=1;fillColor=none;labelPosition=center;verticalLabelPosition=bottom;align=center;verticalAlign=top;" parent="1" vertex="1">
          <mxGeometry x="450" y="-1397.05" width="610" height="457.05" as="geometry" />
        </mxCell>
        <mxCell id="gNOePfXuiMs6rmTH2Cl8-1" value="" style="sketch=0;outlineConnect=0;fontColor=#232F3E;gradientColor=none;fillColor=#232F3D;strokeColor=none;dashed=0;verticalLabelPosition=bottom;verticalAlign=top;align=center;html=1;fontSize=12;fontStyle=0;aspect=fixed;pointerEvents=1;shape=mxgraph.aws4.mobile_client;" parent="1" vertex="1">
          <mxGeometry x="69.5" y="-1375.22" width="41" height="78" as="geometry" />
        </mxCell>
        <mxCell id="gNOePfXuiMs6rmTH2Cl8-2" value="" style="shape=mxgraph.signs.tech.computer;html=1;pointerEvents=1;fillColor=#000000;strokeColor=none;verticalLabelPosition=bottom;verticalAlign=top;align=center;" parent="1" vertex="1">
          <mxGeometry x="60" y="-1256.72" width="60" height="70.5" as="geometry" />
        </mxCell>
        <mxCell id="gNOePfXuiMs6rmTH2Cl8-5" value="?? e.g. static site&lt;div&gt;&lt;br&gt;&lt;/div&gt;" style="sketch=0;outlineConnect=0;fontColor=#232F3E;gradientColor=none;fillColor=#7AA116;strokeColor=none;dashed=0;verticalLabelPosition=bottom;verticalAlign=top;align=center;html=1;fontSize=12;fontStyle=0;aspect=fixed;pointerEvents=1;shape=mxgraph.aws4.s3_on_outposts;" parent="1" vertex="1">
          <mxGeometry x="170" y="-1264.22" width="78" height="78" as="geometry" />
        </mxCell>
        <mxCell id="gNOePfXuiMs6rmTH2Cl8-6" value="" style="shape=curlyBracket;whiteSpace=wrap;html=1;rounded=1;flipH=1;labelPosition=right;verticalLabelPosition=middle;align=left;verticalAlign=middle;" parent="1" vertex="1">
          <mxGeometry x="140" y="-1365.22" width="20" height="160" as="geometry" />
        </mxCell>
        <mxCell id="aVOqjhGYucEx2oazw3-k-59" style="edgeStyle=orthogonalEdgeStyle;rounded=0;orthogonalLoop=1;jettySize=auto;html=1;" edge="1" parent="1" source="gNOePfXuiMs6rmTH2Cl8-7" target="aVOqjhGYucEx2oazw3-k-35">
          <mxGeometry relative="1" as="geometry" />
        </mxCell>
        <mxCell id="gNOePfXuiMs6rmTH2Cl8-7" value="Gateway" style="sketch=0;points=[[0,0,0],[0.25,0,0],[0.5,0,0],[0.75,0,0],[1,0,0],[0,1,0],[0.25,1,0],[0.5,1,0],[0.75,1,0],[1,1,0],[0,0.25,0],[0,0.5,0],[0,0.75,0],[1,0.25,0],[1,0.5,0],[1,0.75,0]];outlineConnect=0;fontColor=#232F3E;fillColor=#8C4FFF;strokeColor=#ffffff;dashed=0;verticalLabelPosition=bottom;verticalAlign=top;align=center;html=1;fontSize=12;fontStyle=0;aspect=fixed;shape=mxgraph.aws4.resourceIcon;resIcon=mxgraph.aws4.api_gateway;" parent="1" vertex="1">
          <mxGeometry x="440" y="-1383.49" width="78" height="78" as="geometry" />
        </mxCell>
        <mxCell id="gNOePfXuiMs6rmTH2Cl8-8" value="Digi Dynamic" style="sketch=0;points=[[0.015,0.015,0],[0.985,0.015,0],[0.985,0.985,0],[0.015,0.985,0],[0.25,0,0],[0.5,0,0],[0.75,0,0],[1,0.25,0],[1,0.5,0],[1,0.75,0],[0.75,1,0],[0.5,1,0],[0.25,1,0],[0,0.75,0],[0,0.5,0],[0,0.25,0]];verticalLabelPosition=bottom;html=1;verticalAlign=top;aspect=fixed;align=center;pointerEvents=1;shape=mxgraph.cisco19.dns_server;fillColor=#005073;strokeColor=none;" parent="1" vertex="1">
          <mxGeometry x="170" y="-1391.77" width="52" height="94.55" as="geometry" />
        </mxCell>
        <mxCell id="gNOePfXuiMs6rmTH2Cl8-15" style="edgeStyle=orthogonalEdgeStyle;rounded=0;orthogonalLoop=1;jettySize=auto;html=1;entryX=0;entryY=0.5;entryDx=0;entryDy=0;entryPerimeter=0;" parent="1" source="aVOqjhGYucEx2oazw3-k-1" target="gNOePfXuiMs6rmTH2Cl8-7" edge="1">
          <mxGeometry relative="1" as="geometry" />
        </mxCell>
        <mxCell id="aVOqjhGYucEx2oazw3-k-11" style="edgeStyle=orthogonalEdgeStyle;rounded=0;orthogonalLoop=1;jettySize=auto;html=1;" edge="1" parent="1" source="gNOePfXuiMs6rmTH2Cl8-22" target="gNOePfXuiMs6rmTH2Cl8-64">
          <mxGeometry relative="1" as="geometry" />
        </mxCell>
        <mxCell id="gNOePfXuiMs6rmTH2Cl8-22" value="push / CICD start" style="shape=image;html=1;verticalAlign=top;verticalLabelPosition=bottom;labelBackgroundColor=#ffffff;imageAspect=0;aspect=fixed;image=https://cdn1.iconfinder.com/data/icons/technology-and-hardware-2/200/vector_66_08-128.png" parent="1" vertex="1">
          <mxGeometry x="480" y="-1579" width="100" height="100" as="geometry" />
        </mxCell>
        <mxCell id="aVOqjhGYucEx2oazw3-k-5" style="edgeStyle=orthogonalEdgeStyle;rounded=0;orthogonalLoop=1;jettySize=auto;html=1;" edge="1" parent="1" source="gNOePfXuiMs6rmTH2Cl8-64" target="aVOqjhGYucEx2oazw3-k-4">
          <mxGeometry relative="1" as="geometry" />
        </mxCell>
        <mxCell id="gNOePfXuiMs6rmTH2Cl8-64" value="Github Actions" style="shape=image;html=1;verticalAlign=top;verticalLabelPosition=bottom;labelBackgroundColor=#ffffff;imageAspect=0;aspect=fixed;image=https://cdn4.iconfinder.com/data/icons/social-media-and-logos-12/32/Logo_Github-128.png" parent="1" vertex="1">
          <mxGeometry x="662" y="-1578" width="98" height="98" as="geometry" />
        </mxCell>
        <mxCell id="aVOqjhGYucEx2oazw3-k-3" value="" style="edgeStyle=orthogonalEdgeStyle;rounded=0;orthogonalLoop=1;jettySize=auto;html=1;entryX=0;entryY=0.5;entryDx=0;entryDy=0;entryPerimeter=0;" edge="1" parent="1" source="aVOqjhGYucEx2oazw3-k-2" target="aVOqjhGYucEx2oazw3-k-1">
          <mxGeometry relative="1" as="geometry">
            <mxPoint x="212" y="-1159" as="sourcePoint" />
            <mxPoint x="388" y="-1336" as="targetPoint" />
          </mxGeometry>
        </mxCell>
        <mxCell id="aVOqjhGYucEx2oazw3-k-1" value="Tunnel Agent" style="image;sketch=0;aspect=fixed;html=1;points=[];align=center;fontSize=12;image=img/lib/mscae/Azure_Firewall.svg;" vertex="1" parent="1">
          <mxGeometry x="360" y="-1370.5" width="50" height="50" as="geometry" />
        </mxCell>
        <mxCell id="aVOqjhGYucEx2oazw3-k-4" value="" style="image;sketch=0;aspect=fixed;html=1;points=[];align=center;fontSize=12;image=img/lib/mscae/Docker.svg;" vertex="1" parent="1">
          <mxGeometry x="848.5" y="-1569" width="97.56" height="80" as="geometry" />
        </mxCell>
        <mxCell id="aVOqjhGYucEx2oazw3-k-7" value="PV" style="aspect=fixed;sketch=0;html=1;dashed=0;whitespace=wrap;verticalLabelPosition=bottom;verticalAlign=top;fillColor=#2875E2;strokeColor=#ffffff;points=[[0.005,0.63,0],[0.1,0.2,0],[0.9,0.2,0],[0.5,0,0],[0.995,0.63,0],[0.72,0.99,0],[0.5,1,0],[0.28,0.99,0]];shape=mxgraph.kubernetes.icon2;prIcon=pv" vertex="1" parent="1">
          <mxGeometry x="545" y="-1071.5" width="50" height="48" as="geometry" />
        </mxCell>
        <mxCell id="aVOqjhGYucEx2oazw3-k-9" style="edgeStyle=orthogonalEdgeStyle;rounded=0;orthogonalLoop=1;jettySize=auto;html=1;" edge="1" parent="1" source="aVOqjhGYucEx2oazw3-k-8" target="aVOqjhGYucEx2oazw3-k-7">
          <mxGeometry relative="1" as="geometry" />
        </mxCell>
        <mxCell id="aVOqjhGYucEx2oazw3-k-8" value="PVC" style="aspect=fixed;sketch=0;html=1;dashed=0;whitespace=wrap;verticalLabelPosition=bottom;verticalAlign=top;fillColor=#2875E2;strokeColor=#ffffff;points=[[0.005,0.63,0],[0.1,0.2,0],[0.9,0.2,0],[0.5,0,0],[0.995,0.63,0],[0.72,0.99,0],[0.5,1,0],[0.28,0.99,0]];shape=mxgraph.kubernetes.icon2;prIcon=pvc" vertex="1" parent="1">
          <mxGeometry x="545" y="-1140" width="50" height="48" as="geometry" />
        </mxCell>
        <mxCell id="aVOqjhGYucEx2oazw3-k-20" value="" style="edgeStyle=orthogonalEdgeStyle;rounded=0;orthogonalLoop=1;jettySize=auto;html=1;" edge="1" parent="1" source="aVOqjhGYucEx2oazw3-k-16" target="aVOqjhGYucEx2oazw3-k-17">
          <mxGeometry relative="1" as="geometry" />
        </mxCell>
        <mxCell id="aVOqjhGYucEx2oazw3-k-16" value="External Secrets" style="aspect=fixed;sketch=0;html=1;dashed=0;whitespace=wrap;verticalLabelPosition=bottom;verticalAlign=top;fillColor=#2875E2;strokeColor=#ffffff;points=[[0.005,0.63,0],[0.1,0.2,0],[0.9,0.2,0],[0.5,0,0],[0.995,0.63,0],[0.72,0.99,0],[0.5,1,0],[0.28,0.99,0]];shape=mxgraph.kubernetes.icon2;prIcon=crd" vertex="1" parent="1">
          <mxGeometry x="930" y="-1253.22" width="50" height="48" as="geometry" />
        </mxCell>
        <mxCell id="aVOqjhGYucEx2oazw3-k-66" value="" style="edgeStyle=orthogonalEdgeStyle;rounded=0;orthogonalLoop=1;jettySize=auto;html=1;" edge="1" parent="1" source="aVOqjhGYucEx2oazw3-k-17" target="aVOqjhGYucEx2oazw3-k-65">
          <mxGeometry relative="1" as="geometry" />
        </mxCell>
        <mxCell id="aVOqjhGYucEx2oazw3-k-17" value="Vault - HashiCorp" style="aspect=fixed;sketch=0;html=1;dashed=0;whitespace=wrap;verticalLabelPosition=bottom;verticalAlign=top;fillColor=#2875E2;strokeColor=#ffffff;points=[[0.005,0.63,0],[0.1,0.2,0],[0.9,0.2,0],[0.5,0,0],[0.995,0.63,0],[0.72,0.99,0],[0.5,1,0],[0.28,0.99,0]];shape=mxgraph.kubernetes.icon2;prIcon=psp" vertex="1" parent="1">
          <mxGeometry x="930" y="-1330" width="50" height="48" as="geometry" />
        </mxCell>
        <mxCell id="aVOqjhGYucEx2oazw3-k-19" style="edgeStyle=orthogonalEdgeStyle;rounded=0;orthogonalLoop=1;jettySize=auto;html=1;exitX=0.5;exitY=1;exitDx=0;exitDy=0;exitPerimeter=0;" edge="1" parent="1" source="aVOqjhGYucEx2oazw3-k-16" target="aVOqjhGYucEx2oazw3-k-16">
          <mxGeometry relative="1" as="geometry" />
        </mxCell>
        <mxCell id="aVOqjhGYucEx2oazw3-k-23" value="" style="edgeStyle=orthogonalEdgeStyle;rounded=0;orthogonalLoop=1;jettySize=auto;html=1;" edge="1" parent="1" source="aVOqjhGYucEx2oazw3-k-21" target="aVOqjhGYucEx2oazw3-k-22">
          <mxGeometry relative="1" as="geometry" />
        </mxCell>
        <mxCell id="aVOqjhGYucEx2oazw3-k-21" value="" style="aspect=fixed;sketch=0;html=1;dashed=0;whitespace=wrap;verticalLabelPosition=bottom;verticalAlign=top;fillColor=#2875E2;strokeColor=#ffffff;points=[[0.005,0.63,0],[0.1,0.2,0],[0.9,0.2,0],[0.5,0,0],[0.995,0.63,0],[0.72,0.99,0],[0.5,1,0],[0.28,0.99,0]];shape=mxgraph.kubernetes.icon2;prIcon=cronjob" vertex="1" parent="1">
          <mxGeometry x="450" y="-1228" width="50" height="48" as="geometry" />
        </mxCell>
        <mxCell id="aVOqjhGYucEx2oazw3-k-39" value="" style="edgeStyle=orthogonalEdgeStyle;rounded=0;orthogonalLoop=1;jettySize=auto;html=1;" edge="1" parent="1" source="aVOqjhGYucEx2oazw3-k-22" target="aVOqjhGYucEx2oazw3-k-8">
          <mxGeometry relative="1" as="geometry" />
        </mxCell>
        <mxCell id="aVOqjhGYucEx2oazw3-k-22" value="DB Snapshot" style="aspect=fixed;sketch=0;html=1;dashed=0;whitespace=wrap;verticalLabelPosition=bottom;verticalAlign=top;fillColor=#2875E2;strokeColor=#ffffff;points=[[0.005,0.63,0],[0.1,0.2,0],[0.9,0.2,0],[0.5,0,0],[0.995,0.63,0],[0.72,0.99,0],[0.5,1,0],[0.28,0.99,0]];shape=mxgraph.kubernetes.icon2;prIcon=job" vertex="1" parent="1">
          <mxGeometry x="545" y="-1228" width="50" height="48" as="geometry" />
        </mxCell>
        <mxCell id="aVOqjhGYucEx2oazw3-k-29" value="" style="edgeStyle=orthogonalEdgeStyle;rounded=0;orthogonalLoop=1;jettySize=auto;html=1;" edge="1" parent="1" source="aVOqjhGYucEx2oazw3-k-24" target="aVOqjhGYucEx2oazw3-k-26">
          <mxGeometry relative="1" as="geometry" />
        </mxCell>
        <mxCell id="aVOqjhGYucEx2oazw3-k-43" style="edgeStyle=orthogonalEdgeStyle;rounded=0;orthogonalLoop=1;jettySize=auto;html=1;" edge="1" parent="1" source="aVOqjhGYucEx2oazw3-k-24" target="aVOqjhGYucEx2oazw3-k-4">
          <mxGeometry relative="1" as="geometry">
            <Array as="points">
              <mxPoint x="897" y="-1170" />
            </Array>
          </mxGeometry>
        </mxCell>
        <mxCell id="aVOqjhGYucEx2oazw3-k-63" value="Allways Pull" style="edgeLabel;html=1;align=center;verticalAlign=middle;resizable=0;points=[];" vertex="1" connectable="0" parent="aVOqjhGYucEx2oazw3-k-43">
          <mxGeometry x="0.1401" y="3" relative="1" as="geometry">
            <mxPoint as="offset" />
          </mxGeometry>
        </mxCell>
        <mxCell id="aVOqjhGYucEx2oazw3-k-62" style="edgeStyle=orthogonalEdgeStyle;rounded=0;orthogonalLoop=1;jettySize=auto;html=1;" edge="1" parent="1" source="aVOqjhGYucEx2oazw3-k-24" target="aVOqjhGYucEx2oazw3-k-25">
          <mxGeometry relative="1" as="geometry" />
        </mxCell>
        <mxCell id="aVOqjhGYucEx2oazw3-k-24" value="" style="aspect=fixed;sketch=0;html=1;dashed=0;whitespace=wrap;verticalLabelPosition=bottom;verticalAlign=top;fillColor=#2875E2;strokeColor=#ffffff;points=[[0.005,0.63,0],[0.1,0.2,0],[0.9,0.2,0],[0.5,0,0],[0.995,0.63,0],[0.72,0.99,0],[0.5,1,0],[0.28,0.99,0]];shape=mxgraph.kubernetes.icon2;kubernetesLabel=1;prIcon=deploy" vertex="1" parent="1">
          <mxGeometry x="798.5" y="-1175" width="50" height="48" as="geometry" />
        </mxCell>
        <mxCell id="aVOqjhGYucEx2oazw3-k-40" value="" style="edgeStyle=orthogonalEdgeStyle;rounded=0;orthogonalLoop=1;jettySize=auto;html=1;" edge="1" parent="1" source="aVOqjhGYucEx2oazw3-k-25" target="aVOqjhGYucEx2oazw3-k-27">
          <mxGeometry relative="1" as="geometry" />
        </mxCell>
        <mxCell id="aVOqjhGYucEx2oazw3-k-25" value="Postgres" style="aspect=fixed;sketch=0;html=1;dashed=0;whitespace=wrap;verticalLabelPosition=bottom;verticalAlign=top;fillColor=#2875E2;strokeColor=#ffffff;points=[[0.005,0.63,0],[0.1,0.2,0],[0.9,0.2,0],[0.5,0,0],[0.995,0.63,0],[0.72,0.99,0],[0.5,1,0],[0.28,0.99,0]];shape=mxgraph.kubernetes.icon2;prIcon=svc" vertex="1" parent="1">
          <mxGeometry x="728.5" y="-1228" width="50" height="48" as="geometry" />
        </mxCell>
        <mxCell id="aVOqjhGYucEx2oazw3-k-28" value="" style="edgeStyle=orthogonalEdgeStyle;rounded=0;orthogonalLoop=1;jettySize=auto;html=1;" edge="1" parent="1" source="aVOqjhGYucEx2oazw3-k-26" target="aVOqjhGYucEx2oazw3-k-16">
          <mxGeometry relative="1" as="geometry" />
        </mxCell>
        <mxCell id="aVOqjhGYucEx2oazw3-k-26" value="K8s Secrets" style="aspect=fixed;sketch=0;html=1;dashed=0;whitespace=wrap;verticalLabelPosition=bottom;verticalAlign=top;fillColor=#2875E2;strokeColor=#ffffff;points=[[0.005,0.63,0],[0.1,0.2,0],[0.9,0.2,0],[0.5,0,0],[0.995,0.63,0],[0.72,0.99,0],[0.5,1,0],[0.28,0.99,0]];shape=mxgraph.kubernetes.icon2;prIcon=secret" vertex="1" parent="1">
          <mxGeometry x="930" y="-1175" width="50" height="48" as="geometry" />
        </mxCell>
        <mxCell id="aVOqjhGYucEx2oazw3-k-38" value="" style="edgeStyle=orthogonalEdgeStyle;rounded=0;orthogonalLoop=1;jettySize=auto;html=1;" edge="1" parent="1" source="aVOqjhGYucEx2oazw3-k-27" target="aVOqjhGYucEx2oazw3-k-32">
          <mxGeometry relative="1" as="geometry" />
        </mxCell>
        <mxCell id="aVOqjhGYucEx2oazw3-k-27" value="" style="aspect=fixed;sketch=0;html=1;dashed=0;whitespace=wrap;verticalLabelPosition=bottom;verticalAlign=top;fillColor=#2875E2;strokeColor=#ffffff;points=[[0.005,0.63,0],[0.1,0.2,0],[0.9,0.2,0],[0.5,0,0],[0.995,0.63,0],[0.72,0.99,0],[0.5,1,0],[0.28,0.99,0]];shape=mxgraph.kubernetes.icon2;prIcon=sts" vertex="1" parent="1">
          <mxGeometry x="640" y="-1228" width="50" height="48" as="geometry" />
        </mxCell>
        <mxCell id="aVOqjhGYucEx2oazw3-k-30" value="PV" style="aspect=fixed;sketch=0;html=1;dashed=0;whitespace=wrap;verticalLabelPosition=bottom;verticalAlign=top;fillColor=#2875E2;strokeColor=#ffffff;points=[[0.005,0.63,0],[0.1,0.2,0],[0.9,0.2,0],[0.5,0,0],[0.995,0.63,0],[0.72,0.99,0],[0.5,1,0],[0.28,0.99,0]];shape=mxgraph.kubernetes.icon2;prIcon=pv" vertex="1" parent="1">
          <mxGeometry x="640" y="-1071.5" width="50" height="48" as="geometry" />
        </mxCell>
        <mxCell id="aVOqjhGYucEx2oazw3-k-31" style="edgeStyle=orthogonalEdgeStyle;rounded=0;orthogonalLoop=1;jettySize=auto;html=1;" edge="1" parent="1" source="aVOqjhGYucEx2oazw3-k-32" target="aVOqjhGYucEx2oazw3-k-30">
          <mxGeometry relative="1" as="geometry" />
        </mxCell>
        <mxCell id="aVOqjhGYucEx2oazw3-k-32" value="PVC" style="aspect=fixed;sketch=0;html=1;dashed=0;whitespace=wrap;verticalLabelPosition=bottom;verticalAlign=top;fillColor=#2875E2;strokeColor=#ffffff;points=[[0.005,0.63,0],[0.1,0.2,0],[0.9,0.2,0],[0.5,0,0],[0.995,0.63,0],[0.72,0.99,0],[0.5,1,0],[0.28,0.99,0]];shape=mxgraph.kubernetes.icon2;prIcon=pvc" vertex="1" parent="1">
          <mxGeometry x="640" y="-1140" width="50" height="48" as="geometry" />
        </mxCell>
        <mxCell id="aVOqjhGYucEx2oazw3-k-33" value="" style="edgeStyle=orthogonalEdgeStyle;rounded=0;orthogonalLoop=1;jettySize=auto;html=1;" edge="1" parent="1">
          <mxGeometry relative="1" as="geometry">
            <mxPoint x="595" y="-1207.05" as="sourcePoint" />
            <mxPoint x="640" y="-1207" as="targetPoint" />
          </mxGeometry>
        </mxCell>
        <mxCell id="aVOqjhGYucEx2oazw3-k-41" value="" style="edgeStyle=orthogonalEdgeStyle;rounded=0;orthogonalLoop=1;jettySize=auto;html=1;" edge="1" parent="1" source="aVOqjhGYucEx2oazw3-k-35" target="aVOqjhGYucEx2oazw3-k-24">
          <mxGeometry relative="1" as="geometry" />
        </mxCell>
        <mxCell id="aVOqjhGYucEx2oazw3-k-57" value="" style="edgeStyle=orthogonalEdgeStyle;rounded=0;orthogonalLoop=1;jettySize=auto;html=1;" edge="1" parent="1" source="aVOqjhGYucEx2oazw3-k-35" target="aVOqjhGYucEx2oazw3-k-24">
          <mxGeometry relative="1" as="geometry" />
        </mxCell>
        <mxCell id="aVOqjhGYucEx2oazw3-k-35" value="Polls SVC" style="aspect=fixed;sketch=0;html=1;dashed=0;whitespace=wrap;verticalLabelPosition=bottom;verticalAlign=top;fillColor=#2875E2;strokeColor=#ffffff;points=[[0.005,0.63,0],[0.1,0.2,0],[0.9,0.2,0],[0.5,0,0],[0.995,0.63,0],[0.72,0.99,0],[0.5,1,0],[0.28,0.99,0]];shape=mxgraph.kubernetes.icon2;prIcon=svc" vertex="1" parent="1">
          <mxGeometry x="798.5" y="-1368.49" width="50" height="48" as="geometry" />
        </mxCell>
        <mxCell id="aVOqjhGYucEx2oazw3-k-52" style="edgeStyle=orthogonalEdgeStyle;rounded=0;orthogonalLoop=1;jettySize=auto;html=1;" edge="1" parent="1" source="aVOqjhGYucEx2oazw3-k-46" target="aVOqjhGYucEx2oazw3-k-7">
          <mxGeometry relative="1" as="geometry" />
        </mxCell>
        <mxCell id="aVOqjhGYucEx2oazw3-k-46" value="" style="image;aspect=fixed;perimeter=ellipsePerimeter;html=1;align=center;shadow=0;dashed=0;spacingTop=3;image=img/lib/active_directory/hard_disk.svg;" vertex="1" parent="1">
          <mxGeometry x="595" y="-967" width="50" height="27" as="geometry" />
        </mxCell>
        <mxCell id="aVOqjhGYucEx2oazw3-k-50" style="edgeStyle=orthogonalEdgeStyle;rounded=0;orthogonalLoop=1;jettySize=auto;html=1;entryX=0.56;entryY=0.677;entryDx=0;entryDy=0;entryPerimeter=0;" edge="1" parent="1" source="aVOqjhGYucEx2oazw3-k-46" target="aVOqjhGYucEx2oazw3-k-30">
          <mxGeometry relative="1" as="geometry" />
        </mxCell>
        <mxCell id="aVOqjhGYucEx2oazw3-k-54" value="" style="edgeStyle=orthogonalEdgeStyle;rounded=0;orthogonalLoop=1;jettySize=auto;html=1;entryX=0;entryY=0.5;entryDx=0;entryDy=0;entryPerimeter=0;" edge="1" parent="1" source="gNOePfXuiMs6rmTH2Cl8-8" target="aVOqjhGYucEx2oazw3-k-2">
          <mxGeometry relative="1" as="geometry">
            <mxPoint x="222" y="-1344" as="sourcePoint" />
            <mxPoint x="349" y="-1345" as="targetPoint" />
          </mxGeometry>
        </mxCell>
        <mxCell id="aVOqjhGYucEx2oazw3-k-2" value="&lt;div&gt;&amp;nbsp;CloudFlare&lt;/div&gt;&lt;div&gt;Tunnel&lt;/div&gt;" style="image;sketch=0;aspect=fixed;html=1;points=[];align=center;fontSize=12;image=img/lib/mscae/Azure_Firewall.svg;" vertex="1" parent="1">
          <mxGeometry x="248" y="-1370.5" width="50" height="50" as="geometry" />
        </mxCell>
        <mxCell id="aVOqjhGYucEx2oazw3-k-65" value="" style="shape=cylinder3;whiteSpace=wrap;html=1;boundedLbl=1;backgroundOutline=1;size=15;" vertex="1" parent="1">
          <mxGeometry x="1010" y="-1336" width="40" height="60" as="geometry" />
        </mxCell>
      </root>
    </mxGraphModel>
  </diagram>
</mxfile>

